<svg width="48" height="48" viewBox="0 0 48 48" fill="none" xmlns="http://www.w3.org/2000/svg">
<path opacity="0.3" fill-rule="evenodd" clip-rule="evenodd" d="M24 44C14.0589 44 6 35.9411 6 26C6 16.0589 14.0589 8 24 8C33.9411 8 42 16.0589 42 26C42 35.9411 33.9411 44 24 44Z" fill="#5FBFA2"/>
<path fill-rule="evenodd" clip-rule="evenodd" d="M22.3436 14.3797C22.3636 14.1192 22.5809 13.9181 22.8421 13.9181H24.2012C24.458 13.9181 24.6731 14.1127 24.6987 14.3683L25.7909 25.2908L33.4999 29.6959C33.6557 29.785 33.7518 29.9506 33.7518 30.1301V31.4598C33.7518 31.7895 33.4383 32.0289 33.1203 31.9422L21.6405 28.8113C21.4091 28.7482 21.2551 28.5297 21.2735 28.2906L22.3436 14.3797Z" fill="#5FBFA2"/>
</svg>
