<svg width="21" height="17" viewBox="0 0 21 17" fill="none" xmlns="http://www.w3.org/2000/svg">
<path d="M17.3945 2.01065C16.1035 1.39583 14.723 0.949006 13.2799 0.69458C13.1026 1.02074 12.8956 1.45944 12.7528 1.80843C11.2187 1.57359 9.69862 1.57359 8.1927 1.80843C8.04996 1.45944 7.83819 1.02074 7.65936 0.69458C6.21463 0.949006 4.83263 1.39747 3.54162 2.0139C0.93764 6.01913 0.231744 9.92486 0.584693 13.7751C2.31179 15.0879 3.98555 15.8854 5.63107 16.4073C6.03736 15.8381 6.39971 15.2331 6.71187 14.5954C6.11735 14.3655 5.54793 14.0817 5.0099 13.7523C5.15264 13.6447 5.29226 13.5322 5.42715 13.4164C8.70878 14.9787 12.2744 14.9787 15.5168 13.4164C15.6533 13.5322 15.7929 13.6447 15.934 13.7523C15.3944 14.0834 14.8234 14.3671 14.2289 14.5971C14.5411 15.2331 14.9019 15.8397 15.3097 16.4089C16.9568 15.887 18.6321 15.0896 20.3592 13.7751C20.7734 9.31169 19.6518 5.44182 17.3945 2.01065ZM7.15895 11.4073C6.17384 11.4073 5.36596 10.4712 5.36596 9.33125C5.36596 8.19133 6.15658 7.25363 7.15895 7.25363C8.16134 7.25363 8.96918 8.18969 8.95193 9.33125C8.95349 10.4712 8.16134 11.4073 7.15895 11.4073ZM13.785 11.4073C12.7999 11.4073 11.992 10.4712 11.992 9.33125C11.992 8.19133 12.7826 7.25363 13.785 7.25363C14.7873 7.25363 15.5952 8.18969 15.578 9.33125C15.578 10.4712 14.7873 11.4073 13.785 11.4073Z" fill="white"/>
</svg>
