<svg width="24" height="24" viewBox="0 0 24 24" fill="none" xmlns="http://www.w3.org/2000/svg">
<path d="M9.34886 10.068C8.65401 10.068 8.10544 10.668 8.10544 11.4C8.10544 12.132 8.6662 12.732 9.34886 12.732C10.0437 12.732 10.5923 12.132 10.5923 11.4C10.6045 10.668 10.0437 10.068 9.34886 10.068ZM13.7984 10.068C13.1035 10.068 12.555 10.668 12.555 11.4C12.555 12.132 13.1157 12.732 13.7984 12.732C14.4932 12.732 15.0418 12.132 15.0418 11.4C15.0418 10.668 14.4932 10.068 13.7984 10.068Z" fill="#65B875"/>
<path d="M19.723 0H3.38772C2.0102 0 0.888672 1.104 0.888672 2.472V18.696C0.888672 20.064 2.0102 21.168 3.38772 21.168H17.2117L16.5656 18.948L18.126 20.376L19.6011 21.72L22.222 24V2.472C22.222 1.104 21.1005 0 19.723 0ZM15.0174 15.672C15.0174 15.672 14.5786 15.156 14.2129 14.7C15.8098 14.256 16.4193 13.272 16.4193 13.272C15.9195 13.596 15.4441 13.824 15.0174 13.98C14.4079 14.232 13.8228 14.4 13.2498 14.496C12.0795 14.712 11.0068 14.652 10.0925 14.484C9.39762 14.352 8.80029 14.16 8.30048 13.968C8.0201 13.86 7.71534 13.728 7.41058 13.56C7.374 13.536 7.33743 13.524 7.30086 13.5C7.27648 13.488 7.26429 13.476 7.2521 13.464C7.03267 13.344 6.91077 13.26 6.91077 13.26C6.91077 13.26 7.49591 14.22 9.0441 14.676C8.67839 15.132 8.22734 15.672 8.22734 15.672C5.53324 15.588 4.50924 13.848 4.50924 13.848C4.50924 9.984 6.26467 6.852 6.26467 6.852C8.0201 5.556 9.6902 5.592 9.6902 5.592L9.8121 5.736C7.61781 6.36 6.60601 7.308 6.60601 7.308C6.60601 7.308 6.8742 7.164 7.32524 6.96C8.62962 6.396 9.66581 6.24 10.0925 6.204C10.1656 6.192 10.2266 6.18 10.2997 6.18C11.0433 6.084 11.8845 6.06 12.7622 6.156C13.9203 6.288 15.1637 6.624 16.4315 7.308C16.4315 7.308 15.4685 6.408 13.3961 5.784L13.5668 5.592C13.5668 5.592 15.2369 5.556 16.9923 6.852C16.9923 6.852 18.7477 9.984 18.7477 13.848C18.7477 13.848 17.7115 15.588 15.0174 15.672Z" fill="#65B875"/>
</svg>
