<svg width="48" height="48" viewBox="0 0 48 48" fill="none" xmlns="http://www.w3.org/2000/svg">
<path opacity="0.3" fill-rule="evenodd" clip-rule="evenodd" d="M41 28.0001C42.6569 28.0001 44 26.657 44 25.0001C44 23.3433 42.6569 22.0001 41 22.0001C39.3431 22.0001 38 23.3433 38 25.0001C38 26.657 39.3431 28.0001 41 28.0001Z" fill="#5FBFA2"/>
<rect opacity="0.3" x="4.80078" y="10.8973" width="36" height="14" rx="1" transform="rotate(-15 4.80078 10.8973)" fill="#5FBFA2"/>
<path fill-rule="evenodd" clip-rule="evenodd" d="M6 8C4.89543 8 4 8.89543 4 10V38C4 39.1046 4.89543 40 6 40H42C43.1046 40 44 39.1046 44 38V31.3264C43.0907 31.7583 42.0736 32 41 32C37.134 32 34 28.866 34 25C34 21.134 37.134 18 41 18C42.0736 18 43.0907 18.2417 44 18.6736V10C44 8.89543 43.1046 8 42 8H6Z" fill="#5FBFA2"/>
</svg>
