<svg width="48" height="48" viewBox="0 0 48 48" fill="none" xmlns="http://www.w3.org/2000/svg">
<path opacity="0.3" fill-rule="evenodd" clip-rule="evenodd" d="M24 42C33.9411 42 42 33.9411 42 24C42 14.0589 33.9411 6 24 6C14.0589 6 6 14.0589 6 24C6 33.9411 14.0589 42 24 42Z" fill="#5FBFA2"/>
<path fill-rule="evenodd" clip-rule="evenodd" d="M23.4715 41.9924C13.7748 41.7128 6 33.7643 6 24C6 23.8337 6.00226 23.6679 6.00674 23.5026C7.32466 23.6286 9.71274 23.9147 9.82526 24.8408C9.98099 26.1218 9.82526 27.7232 10.9161 28.2035C12.0069 28.6839 12.3186 26.2819 13.2535 26.9225C14.1884 27.5631 16.6817 28.1798 16.6817 29.3124C16.6817 30.4448 16.2143 32.2069 16.6817 32.5272C17.1492 32.8475 19.0179 35.0893 19.0184 35.4096C19.0191 35.7299 19.6772 37.3587 19.4808 37.9813C19.3181 38.4975 18.4972 40.1003 17.7012 40.8291C19.5063 41.5241 21.4472 41.9315 23.4715 41.9921L23.4715 41.9924ZM16.565 7.60224C18.8312 6.57313 21.3484 6 23.9995 6C31.0224 6 37.1059 10.0219 40.0724 15.8882C40.1388 17.4482 40.1272 18.7827 40.4718 19.2655C42.2259 21.7201 36.1985 23.4086 37.1142 27.1211C37.5175 28.759 33.1051 28.2394 32.0275 29.7728C30.9491 31.3055 28.3144 30.2756 27.7035 29.981C27.0926 29.6864 24.7528 30.6683 24.9573 28.999C25.1607 27.3293 26.5841 27.2312 28.1106 26.5439C29.6365 25.8573 31.8374 23.5744 30.7559 23.276C25.6641 21.8725 23.9271 16.957 23.9271 16.957C23.6216 16.898 23.6983 13.4822 22.3762 13.3841C21.053 13.2856 20.3404 13.7768 18.4082 13.3841C16.4748 12.9915 16.8824 11.7149 16.577 8.96512C16.5086 8.34831 16.5119 7.91434 16.565 7.60224ZM41.9971 23.7541C41.9982 23.836 41.9987 23.918 41.9987 24.0001C41.9987 33.8814 34.0364 41.9031 24.1777 41.9992C33.9392 41.9007 41.8661 33.7769 41.9971 23.7541Z" fill="#5FBFA2"/>
</svg>
