<svg width="28" height="28" viewBox="0 0 28 28" fill="none" xmlns="http://www.w3.org/2000/svg">
<path fill-rule="evenodd" clip-rule="evenodd" d="M5.66797 4.66663C5.11568 4.66663 4.66797 5.11434 4.66797 5.66663V6.99996H9.33464V5.66663C9.33464 5.11434 8.88692 4.66663 8.33464 4.66663H5.66797ZM19.668 4.66663C19.1157 4.66663 18.668 5.11434 18.668 5.66663V6.99996H23.3346V5.66663C23.3346 5.11434 22.8869 4.66663 22.3346 4.66663H19.668Z" fill="white"/>
<rect x="2.33203" y="7" width="23.3333" height="16.3333" rx="2" fill="white"/>
<path fill-rule="evenodd" clip-rule="evenodd" d="M12.832 17.6666C12.832 18.2189 13.2797 18.6666 13.832 18.6666H14.1654C14.7176 18.6666 15.1654 18.2189 15.1654 17.6666V16.3333H16.5C17.0523 16.3333 17.5 15.8856 17.5 15.3333V15C17.5 14.4477 17.0523 14 16.5 14H15.1654V12.6666C15.1654 12.1143 14.7176 11.6666 14.1654 11.6666H13.832C13.2797 11.6666 12.832 12.1143 12.832 12.6666V14H11.5C10.9477 14 10.5 14.4477 10.5 15V15.3333C10.5 15.8856 10.9477 16.3333 11.5 16.3333H12.832V17.6666Z" fill="#5FBFA2"/>
</svg>
