<svg width="48" height="48" viewBox="0 0 48 48" fill="none" xmlns="http://www.w3.org/2000/svg">
<path opacity="0.3" fill-rule="evenodd" clip-rule="evenodd" d="M11.252 14.8936C11.252 18.917 14.5136 22.1786 18.5369 22.1786C22.5603 22.1786 25.8219 18.917 25.8219 14.8936C25.8219 10.8702 22.5603 7.60864 18.5369 7.60864C14.5136 7.60864 11.252 10.8702 11.252 14.8936ZM29.4648 22.1787C29.4648 25.1963 31.911 27.6425 34.9286 27.6425C37.9461 27.6425 40.3923 25.1963 40.3923 22.1787C40.3923 19.1612 37.9461 16.715 34.9286 16.715C31.911 16.715 29.4648 19.1612 29.4648 22.1787Z" fill="#5FBFA2"/>
<path fill-rule="evenodd" clip-rule="evenodd" d="M18.5054 25.8213C9.90653 25.8213 2.85165 30.2406 2.14572 38.9328C2.10727 39.4063 3.01274 40.3913 3.46949 40.3913H33.5551C34.9232 40.3913 34.9445 39.2903 34.9232 38.9343C34.3895 29.9978 27.2253 25.8213 18.5054 25.8213ZM44.8631 40.3915H37.839V40.3914C37.839 36.2919 36.4846 32.5088 34.1987 29.4651C40.4035 29.5325 45.47 32.6691 45.8512 39.2987C45.8666 39.5657 45.8512 40.3915 44.8631 40.3915Z" fill="#5FBFA2"/>
</svg>
