<svg width="24" height="20" viewBox="0 0 24 20" fill="none" xmlns="http://www.w3.org/2000/svg">
<path d="M24 2.66346C23.1 3.09615 22.2 3.24038 21.15 3.38462C22.2 2.80769 22.95 1.94231 23.25 0.788461C22.35 1.36538 21.3 1.65385 20.1 1.94231C19.2 1.07692 17.85 0.5 16.5 0.5C13.35 0.5 10.95 3.38462 11.7 6.26923C7.65 6.125 4.05 4.25 1.5 1.36539C0.15 3.52885 0.9 6.26923 3 7.71154C2.25 7.71154 1.5 7.42308 0.75 7.13462C0.75 9.29808 2.4 11.3173 4.65 11.8942C3.9 12.0385 3.15 12.1827 2.4 12.0385C3 13.9135 4.8 15.3558 7.05 15.3558C5.25 16.6538 2.55 17.375 0 17.0865C2.25 18.3846 4.8 19.25 7.5 19.25C16.65 19.25 21.75 11.8942 21.45 5.11538C22.5 4.53846 23.4 3.67308 24 2.66346Z" fill="#65B875"/>
</svg>
