<svg width="21" height="16" viewBox="0 0 21 16" fill="none" xmlns="http://www.w3.org/2000/svg">
<path d="M2.625 0C1.17525 0 0 1.19391 0 2.66667V4H21V2.66667C21 1.19391 19.8247 0 18.375 0H2.625Z" fill="white"/>
<path fill-rule="evenodd" clip-rule="evenodd" d="M21 6.66667H0V13.3333C0 14.8061 1.17525 16 2.625 16H18.375C19.8247 16 21 14.8061 21 13.3333V6.66667ZM2.625 12C2.625 11.2636 3.21263 10.6667 3.9375 10.6667H5.25C5.97487 10.6667 6.5625 11.2636 6.5625 12C6.5625 12.7364 5.97487 13.3333 5.25 13.3333H3.9375C3.21263 13.3333 2.625 12.7364 2.625 12ZM9.1875 10.6667C8.46263 10.6667 7.875 11.2636 7.875 12C7.875 12.7364 8.46263 13.3333 9.1875 13.3333H10.5C11.2249 13.3333 11.8125 12.7364 11.8125 12C11.8125 11.2636 11.2249 10.6667 10.5 10.6667H9.1875Z" fill="white"/>
</svg>
